<svg width="498" height="81" viewBox="0 0 498 81" fill="none" xmlns="http://www.w3.org/2000/svg">
<g filter="url(#filter0_d)">
<path d="M0.896 51.136C0.896 46.72 1.536 42.88 2.816 39.616C4.096 36.288 5.792 33.536 7.904 31.36C10.016 29.184 12.448 27.552 15.2 26.464C17.952 25.376 20.768 24.832 23.648 24.832C30.368 24.832 35.52 26.944 39.104 31.168C42.688 35.328 44.48 41.696 44.48 50.272C44.48 50.656 44.48 51.168 44.48 51.808C44.48 52.384 44.448 52.928 44.384 53.44H10.208C10.592 58.624 12.096 62.56 14.72 65.248C17.344 67.936 21.44 69.28 27.008 69.28C30.144 69.28 32.768 69.024 34.88 68.512C37.056 67.936 38.688 67.392 39.776 66.88L41.024 74.368C39.936 74.944 38.016 75.552 35.264 76.192C32.576 76.832 29.504 77.152 26.048 77.152C21.696 77.152 17.92 76.512 14.72 75.232C11.584 73.888 8.992 72.064 6.944 69.76C4.896 67.456 3.36 64.736 2.336 61.6C1.376 58.4 0.896 54.912 0.896 51.136ZM35.168 46.24C35.232 42.208 34.208 38.912 32.096 36.352C30.048 33.728 27.2 32.416 23.552 32.416C21.504 32.416 19.68 32.832 18.08 33.664C16.544 34.432 15.232 35.456 14.144 36.736C13.056 38.016 12.192 39.488 11.552 41.152C10.976 42.816 10.592 44.512 10.4 46.24H35.168ZM89.081 76C88.377 74.592 87.513 73.024 86.489 71.296C85.465 69.568 84.345 67.808 83.129 66.016C81.913 64.16 80.665 62.336 79.385 60.544C78.105 58.752 76.857 57.056 75.641 55.456C74.425 57.056 73.177 58.784 71.897 60.64C70.617 62.432 69.369 64.256 68.153 66.112C67.001 67.904 65.913 69.664 64.889 71.392C63.865 73.12 63.001 74.656 62.297 76H53.081C55.321 71.648 57.977 67.232 61.049 62.752C64.185 58.208 67.289 53.888 70.361 49.792L53.849 26.08H63.929L75.833 43.552L87.833 26.08H97.337L81.209 49.216C84.281 53.376 87.417 57.792 90.617 62.464C93.881 67.072 96.633 71.584 98.873 76H89.081ZM134.315 27.52C136.363 27.008 139.051 26.464 142.379 25.888C145.771 25.312 149.675 25.024 154.091 25.024C157.291 25.024 159.979 25.472 162.155 26.368C164.331 27.2 166.155 28.448 167.627 30.112C168.075 29.792 168.779 29.344 169.739 28.768C170.699 28.192 171.883 27.648 173.291 27.136C174.699 26.56 176.267 26.08 177.995 25.696C179.723 25.248 181.579 25.024 183.563 25.024C187.403 25.024 190.539 25.6 192.971 26.752C195.403 27.84 197.291 29.408 198.635 31.456C200.043 33.504 200.971 35.936 201.419 38.752C201.931 41.568 202.187 44.64 202.187 47.968V76H193.259V49.888C193.259 46.944 193.099 44.416 192.779 42.304C192.523 40.192 191.979 38.432 191.147 37.024C190.379 35.616 189.291 34.592 187.883 33.952C186.539 33.248 184.779 32.896 182.603 32.896C179.595 32.896 177.099 33.312 175.115 34.144C173.195 34.912 171.883 35.616 171.179 36.256C171.691 37.92 172.075 39.744 172.331 41.728C172.587 43.712 172.715 45.792 172.715 47.968V76H163.787V49.888C163.787 46.944 163.627 44.416 163.307 42.304C162.987 40.192 162.411 38.432 161.579 37.024C160.811 35.616 159.723 34.592 158.315 33.952C156.971 33.248 155.243 32.896 153.131 32.896C152.235 32.896 151.275 32.928 150.251 32.992C149.227 33.056 148.235 33.152 147.275 33.28C146.379 33.344 145.547 33.44 144.779 33.568C144.011 33.696 143.499 33.792 143.243 33.856V76H134.315V27.52ZM235.818 69.568C237.93 69.568 239.786 69.536 241.386 69.472C243.05 69.344 244.426 69.152 245.514 68.896V54.016C244.874 53.696 243.818 53.44 242.346 53.248C240.938 52.992 239.21 52.864 237.162 52.864C235.818 52.864 234.378 52.96 232.842 53.152C231.37 53.344 229.994 53.76 228.714 54.4C227.498 54.976 226.474 55.808 225.642 56.896C224.81 57.92 224.394 59.296 224.394 61.024C224.394 64.224 225.418 66.464 227.466 67.744C229.514 68.96 232.298 69.568 235.818 69.568ZM235.05 24.832C238.634 24.832 241.642 25.312 244.074 26.272C246.57 27.168 248.554 28.48 250.026 30.208C251.562 31.872 252.65 33.888 253.29 36.256C253.93 38.56 254.25 41.12 254.25 43.936V75.136C253.482 75.264 252.394 75.456 250.986 75.712C249.642 75.904 248.106 76.096 246.378 76.288C244.65 76.48 242.762 76.64 240.714 76.768C238.73 76.96 236.746 77.056 234.762 77.056C231.946 77.056 229.354 76.768 226.986 76.192C224.618 75.616 222.57 74.72 220.842 73.504C219.114 72.224 217.77 70.56 216.81 68.512C215.85 66.464 215.37 64 215.37 61.12C215.37 58.368 215.914 56 217.002 54.016C218.154 52.032 219.69 50.432 221.61 49.216C223.53 48 225.77 47.104 228.33 46.528C230.89 45.952 233.578 45.664 236.394 45.664C237.29 45.664 238.218 45.728 239.178 45.856C240.138 45.92 241.034 46.048 241.866 46.24C242.762 46.368 243.53 46.496 244.17 46.624C244.81 46.752 245.258 46.848 245.514 46.912V44.416C245.514 42.944 245.354 41.504 245.034 40.096C244.714 38.624 244.138 37.344 243.306 36.256C242.474 35.104 241.322 34.208 239.85 33.568C238.442 32.864 236.586 32.512 234.282 32.512C231.338 32.512 228.746 32.736 226.506 33.184C224.33 33.568 222.698 33.984 221.61 34.432L220.554 27.04C221.706 26.528 223.626 26.048 226.314 25.6C229.002 25.088 231.914 24.832 235.05 24.832ZM292.695 77.152C288.663 77.152 285.111 76.512 282.039 75.232C279.031 73.952 276.471 72.16 274.359 69.856C272.311 67.552 270.775 64.832 269.751 61.696C268.727 58.496 268.215 54.976 268.215 51.136C268.215 47.296 268.759 43.776 269.847 40.576C270.999 37.376 272.599 34.624 274.647 32.32C276.695 29.952 279.191 28.128 282.135 26.848C285.143 25.504 288.471 24.832 292.119 24.832C294.359 24.832 296.599 25.024 298.839 25.408C301.079 25.792 303.223 26.4 305.271 27.232L303.255 34.816C301.911 34.176 300.343 33.664 298.551 33.28C296.823 32.896 294.967 32.704 292.983 32.704C287.991 32.704 284.151 34.272 281.463 37.408C278.839 40.544 277.527 45.12 277.527 51.136C277.527 53.824 277.815 56.288 278.391 58.528C279.031 60.768 279.991 62.688 281.271 64.288C282.615 65.888 284.311 67.136 286.359 68.032C288.407 68.864 290.903 69.28 293.847 69.28C296.215 69.28 298.359 69.056 300.279 68.608C302.199 68.16 303.703 67.68 304.791 67.168L306.039 74.656C305.527 74.976 304.791 75.296 303.831 75.616C302.871 75.872 301.783 76.096 300.567 76.288C299.351 76.544 298.039 76.736 296.631 76.864C295.287 77.056 293.975 77.152 292.695 77.152ZM317.544 76V3.04L326.472 1.504V27.04C328.136 26.4 329.896 25.92 331.752 25.6C333.672 25.216 335.56 25.024 337.416 25.024C341.384 25.024 344.68 25.6 347.304 26.752C349.928 27.84 352.008 29.408 353.544 31.456C355.144 33.44 356.264 35.84 356.904 38.656C357.544 41.472 357.864 44.576 357.864 47.968V76H348.936V49.888C348.936 46.816 348.712 44.192 348.264 42.016C347.88 39.84 347.208 38.08 346.248 36.736C345.288 35.392 344.008 34.432 342.408 33.856C340.808 33.216 338.824 32.896 336.456 32.896C335.496 32.896 334.504 32.96 333.48 33.088C332.456 33.216 331.464 33.376 330.504 33.568C329.608 33.696 328.776 33.856 328.008 34.048C327.304 34.24 326.792 34.4 326.472 34.528V76H317.544ZM383.236 76H374.308V26.08H383.236V76ZM378.724 17.056C377.124 17.056 375.748 16.544 374.596 15.52C373.508 14.432 372.964 12.992 372.964 11.2C372.964 9.408 373.508 8 374.596 6.976C375.748 5.88799 377.124 5.34399 378.724 5.34399C380.324 5.34399 381.668 5.88799 382.756 6.976C383.908 8 384.484 9.408 384.484 11.2C384.484 12.992 383.908 14.432 382.756 15.52C381.668 16.544 380.324 17.056 378.724 17.056ZM400.509 27.52C402.557 27.008 405.277 26.464 408.669 25.888C412.061 25.312 415.965 25.024 420.381 25.024C424.349 25.024 427.645 25.6 430.269 26.752C432.893 27.84 434.973 29.408 436.509 31.456C438.109 33.44 439.229 35.84 439.869 38.656C440.509 41.472 440.829 44.576 440.829 47.968V76H431.901V49.888C431.901 46.816 431.677 44.192 431.229 42.016C430.845 39.84 430.173 38.08 429.213 36.736C428.253 35.392 426.973 34.432 425.373 33.856C423.773 33.216 421.789 32.896 419.421 32.896C418.461 32.896 417.469 32.928 416.445 32.992C415.421 33.056 414.429 33.152 413.469 33.28C412.573 33.344 411.741 33.44 410.973 33.568C410.269 33.696 409.757 33.792 409.437 33.856V76H400.509V27.52ZM474.45 69.568C476.562 69.568 478.418 69.536 480.018 69.472C481.682 69.344 483.058 69.152 484.146 68.896V54.016C483.506 53.696 482.45 53.44 480.978 53.248C479.57 52.992 477.842 52.864 475.794 52.864C474.45 52.864 473.01 52.96 471.474 53.152C470.002 53.344 468.626 53.76 467.346 54.4C466.13 54.976 465.106 55.808 464.274 56.896C463.442 57.92 463.026 59.296 463.026 61.024C463.026 64.224 464.05 66.464 466.098 67.744C468.146 68.96 470.93 69.568 474.45 69.568ZM473.682 24.832C477.266 24.832 480.274 25.312 482.706 26.272C485.202 27.168 487.186 28.48 488.658 30.208C490.194 31.872 491.282 33.888 491.922 36.256C492.562 38.56 492.882 41.12 492.882 43.936V75.136C492.114 75.264 491.026 75.456 489.618 75.712C488.274 75.904 486.738 76.096 485.01 76.288C483.282 76.48 481.394 76.64 479.346 76.768C477.362 76.96 475.378 77.056 473.394 77.056C470.578 77.056 467.986 76.768 465.618 76.192C463.25 75.616 461.202 74.72 459.474 73.504C457.746 72.224 456.402 70.56 455.442 68.512C454.482 66.464 454.002 64 454.002 61.12C454.002 58.368 454.546 56 455.634 54.016C456.786 52.032 458.322 50.432 460.242 49.216C462.162 48 464.402 47.104 466.962 46.528C469.522 45.952 472.21 45.664 475.026 45.664C475.922 45.664 476.85 45.728 477.81 45.856C478.77 45.92 479.666 46.048 480.498 46.24C481.394 46.368 482.162 46.496 482.802 46.624C483.442 46.752 483.89 46.848 484.146 46.912V44.416C484.146 42.944 483.986 41.504 483.666 40.096C483.346 38.624 482.77 37.344 481.938 36.256C481.106 35.104 479.954 34.208 478.482 33.568C477.074 32.864 475.218 32.512 472.914 32.512C469.97 32.512 467.378 32.736 465.138 33.184C462.962 33.568 461.33 33.984 460.242 34.432L459.186 27.04C460.338 26.528 462.258 26.048 464.946 25.6C467.634 25.088 470.546 24.832 473.682 24.832Z" fill="white"/>
</g>
<defs>
<filter id="filter0_d" x="0.895996" y="0.504028" width="496.986" height="79.648" filterUnits="userSpaceOnUse" color-interpolation-filters="sRGB">
<feFlood flood-opacity="0" result="BackgroundImageFix"/>
<feColorMatrix in="SourceAlpha" type="matrix" values="0 0 0 0 0 0 0 0 0 0 0 0 0 0 0 0 0 0 127 0"/>
<feOffset dx="3" dy="1"/>
<feGaussianBlur stdDeviation="1"/>
<feColorMatrix type="matrix" values="0 0 0 0 0 0 0 0 0 0 0 0 0 0 0 0 0 0 0.5 0"/>
<feBlend mode="normal" in2="BackgroundImageFix" result="effect1_dropShadow"/>
<feBlend mode="normal" in="SourceGraphic" in2="effect1_dropShadow" result="shape"/>
</filter>
</defs>
</svg>
